<svg width="638" height="379" viewBox="0 0 638 379" fill="none" xmlns="http://www.w3.org/2000/svg">
<path opacity="0.53" d="M58.7709 157.851C67.0102 150.841 95.6555 151.527 112.416 151.527C129.176 151.527 162.236 152.269 171.334 163.804C180.431 175.339 155.171 187.622 116.068 187.622C76.966 187.622 34.307 178.683 58.7709 157.851Z" fill="#99ADF9"/>
<path d="M520.701 191.708C520.701 191.708 581.012 192.998 602.764 196.672C624.516 200.345 652.2 227.088 627.977 255.246C603.753 283.404 567.884 280.115 466.211 280.115C483.624 224.273 520.701 191.708 520.701 191.708Z" fill="#99ADF9"/>
<path d="M135.424 204.788C135.424 204.788 101.691 199.254 55.0218 206.326C26.349 210.672 -1.82255 225.99 0.779703 247.914C4.58352 280.04 81.2571 267.825 101.711 285.533C122.165 303.241 77.5906 308.411 65.0875 326.949C52.5843 345.488 63.9546 370.645 122.371 374.469C180.788 378.294 362.286 380.244 404.217 374.984C446.149 369.725 471.903 320.619 405.137 294.212C300.89 272.975 135.424 204.788 135.424 204.788Z" fill="#99ADF9"/>
<path d="M550.671 217.366C550.671 271.561 470.043 315.497 319.881 315.497C169.72 315.497 93.3003 271.554 93.3003 217.366C93.3003 163.179 169.761 119.236 319.881 119.236C470.001 119.236 550.671 163.172 550.671 217.366Z" fill="#F0F6FF"/>
<path opacity="0.36" d="M217.583 170.753C217.583 170.753 135.101 179.061 129.168 289.296C161.796 347.623 290.329 333.788 290.329 333.788C290.329 333.788 285.461 222.042 329.603 161.147C421.334 164.113 486.59 163.207 511.308 286.796C561.732 261.09 565.611 205.138 565.611 205.138C565.611 205.138 540.894 126.041 504.805 117.142C468.717 108.244 410.383 119.12 410.383 119.12L217.583 170.753Z" fill="#A869DF"/>
<g style="mix-blend-mode:multiply" opacity="0.64">
<path d="M479.174 177.495C479.174 204.019 423.751 225.523 320.567 225.523C217.384 225.523 164.796 204.019 164.796 177.495C164.796 150.971 217.356 129.474 320.567 129.474C423.778 129.474 479.174 150.985 479.174 177.495Z" fill="#E1ECFF"/>
</g>
<path d="M391.824 184.629C391.824 184.629 401.931 196.054 403.249 205.282C404.568 214.51 403.469 225.935 414.235 229.67C425.001 233.405 453.372 235.602 462.133 224.397C470.894 213.192 464.989 195.175 449.17 181.553C427.885 162.657 403.689 161.119 403.689 161.119L391.824 184.629Z" fill="#B9C5F1"/>
<g style="mix-blend-mode:multiply" opacity="0.45">
<path d="M388.666 206.697C388.666 206.697 433.982 203.195 432.952 155.27C398.278 156.986 380.475 181.217 380.475 181.217L388.666 206.697Z" fill="#B9C5F1"/>
</g>
<path d="M240.784 184.629C240.784 184.629 250.891 196.054 252.209 205.282C253.527 214.51 252.429 225.935 263.195 229.67C273.961 233.405 302.331 235.602 311.092 224.397C319.854 213.192 313.949 195.175 298.129 181.553C276.844 162.657 252.648 161.119 252.648 161.119L240.784 184.629Z" fill="#B9C5F1"/>
<g style="mix-blend-mode:multiply" opacity="0.45">
<path d="M251.241 172.201C251.241 172.201 274.716 211.125 317.08 188.68C299.977 158.469 270.329 153.436 270.329 153.436L251.241 172.201Z" fill="#B9C5F1"/>
</g>
<path d="M373.924 16.5742C380.104 16.7802 399.748 15.3452 407.946 39.5276C416.144 63.7099 422.495 81.342 433.563 97.1203C444.631 112.899 455.905 141.592 433.563 161.662C411.221 181.731 384.999 176.849 372.908 170.896C360.817 164.944 346.46 155.104 349.948 121.509C353.436 87.9129 364.092 67.4039 365.321 48.9547C366.55 30.5055 368.431 24.3604 373.924 16.5742Z" fill="#1A3084"/>
<path d="M316.249 0.0957589C348.321 -1.2088 374.385 10.9717 386.249 27.1207C398.114 43.2697 405.035 82.4888 406.518 94.1887C408.001 105.888 413.274 112.15 418.877 119.895C424.885 128.203 435.191 153.841 424.15 170.979C413.109 188.117 395.12 192.511 375.984 183.118C356.704 190.671 340.322 194.543 309.177 189.298C278.033 184.052 248.131 157.611 240.516 104.488C236.122 73.7277 236.067 36.1565 250.816 16.6018C275.417 9.85935 285.888 1.30419 316.249 0.0957589Z" fill="#B9C5F1"/>
<path d="M250.891 16.5742C244.299 16.7939 223.207 15.2559 214.418 41.1823C205.629 67.1086 198.839 86.0041 186.954 102.922C175.068 119.84 163.005 150.6 186.954 172.132C210.903 193.664 239.026 188.391 251.989 182.02C264.952 175.648 280.332 165.101 276.597 129.068C272.862 93.035 261.437 71.0635 260.119 51.2892C258.8 31.5148 256.823 24.9234 250.891 16.5742Z" fill="#1A3084"/>
<path d="M318.096 109.953C323.01 109.953 326.994 105.969 326.994 101.055C326.994 96.1402 323.01 92.1562 318.096 92.1562C313.181 92.1562 309.197 96.1402 309.197 101.055C309.197 105.969 313.181 109.953 318.096 109.953Z" fill="#1C3177"/>
<path d="M390.382 109.953C395.297 109.953 399.281 105.969 399.281 101.055C399.281 96.1402 395.297 92.1562 390.382 92.1562C385.468 92.1562 381.484 96.1402 381.484 101.055C381.484 105.969 385.468 109.953 390.382 109.953Z" fill="#1C3177"/>
<path d="M304.165 78.4586C303.478 75.2315 311.484 71.2629 315.562 68.283C319.641 65.3032 325.786 64.1634 329.02 69.6013C332.254 75.0393 321.172 80.1545 317.086 81.0265C313.001 81.8985 304.892 81.9946 304.165 78.4586Z" fill="#1A3084"/>
<path d="M399.273 77.2498C399.541 74.2768 392.558 71.1322 388.913 68.6604C385.267 66.1886 380.062 65.502 377.851 70.6378C375.64 75.7737 385.294 79.7766 388.762 80.3396C392.229 80.9026 398.978 80.5112 399.273 77.2498Z" fill="#1A3084"/>
<path d="M361.352 130.277C361.984 126.569 388.13 125.333 390.382 130.277C392.634 135.22 385.576 147.909 378.325 147.909C371.075 147.909 359.705 139.999 361.352 130.277Z" fill="#1C3177"/>
<path d="M379.019 137.363C379.29 144.408 378.968 151.464 378.058 158.455" stroke="#1C3177" stroke-width="7" stroke-miterlimit="10" stroke-linecap="round"/>
<g style="mix-blend-mode:multiply">
<path d="M277.71 229.698C277.71 229.698 280.786 221.458 277.023 214.05" stroke="#B9C5F1" stroke-width="7" stroke-miterlimit="10" stroke-linecap="round"/>
</g>
<g style="mix-blend-mode:multiply">
<path d="M301.981 228.05C303.01 223.31 302.355 218.359 300.127 214.05" stroke="#B9C5F1" stroke-width="7" stroke-miterlimit="10" stroke-linecap="round"/>
</g>
<g style="mix-blend-mode:multiply">
<path d="M428.75 229.698C428.75 229.698 431.826 221.458 428.063 214.05" stroke="#B9C5F1" stroke-width="7" stroke-miterlimit="10" stroke-linecap="round"/>
</g>
<g style="mix-blend-mode:multiply">
<path d="M453.021 228.05C454.055 223.31 453.402 218.359 451.174 214.05" stroke="#B9C5F1" stroke-width="7" stroke-miterlimit="10" stroke-linecap="round"/>
</g>
<path opacity="0.53" d="M493.943 313.581C502.183 306.564 530.821 307.25 547.588 307.25C564.355 307.25 597.408 307.999 606.506 319.534C615.604 331.069 590.343 343.345 551.241 343.345C512.138 343.345 469.507 334.413 493.943 313.581Z" fill="#99ADF9"/>
</svg>
