<svg width="100" height="40" viewBox="0 0 100 40" fill="none" xmlns="http://www.w3.org/2000/svg">
<g clip-path="url(#clip0_169_2576)">
<g clip-path="url(#clip1_169_2576)">
<path d="M7.4833 12.8977C5.28495 11.7647 4.49469 9.09047 5.7374 6.98957C6.93351 4.96744 9.5715 4.23355 11.6807 5.33614L24.5107 12.2947L24.4937 22.3544L7.4833 12.8977Z" fill="#2B50E6"/>
<path d="M8.77455 26.4302C6.9899 25.1661 7.10553 22.5184 8.99326 21.4223L24.5113 12.2949V22.4589L12.6241 29.1571L8.77455 26.4302Z" fill="#8C1ECB"/>
<path d="M5.14844 25.8208C5.14844 25.4965 5.14844 25.3343 5.16223 25.1831C5.24195 24.3091 5.66202 23.5141 6.31608 22.9995C6.42921 22.9105 6.558 22.8289 6.81557 22.6658L12.7363 19.2144L12.7448 30.8138C12.7448 33.0966 11.0443 34.9471 8.94661 34.9471C6.84894 34.9471 5.14844 33.0966 5.14844 30.8138V25.8208Z" fill="#2B50E6"/>
</g>
</g>
<g clip-path="url(#clip2_169_2576)">
<path d="M29.957 24.2128V13.1964C29.957 12.857 30.2375 12.5818 30.5835 12.5818H34.5926C35.5422 12.5818 36.3389 12.7484 36.9827 13.0815C37.6306 13.4147 38.1195 13.8729 38.4495 14.4559C38.7834 15.0352 38.9504 15.694 38.9504 16.4323C38.9504 17.1782 38.7834 17.8407 38.4495 18.42C38.1155 18.9993 37.6225 19.4555 36.9707 19.7887C36.3188 20.1181 35.516 20.2828 34.5624 20.2828H31.4901V18.5506H34.2606C34.8159 18.5506 35.2706 18.4598 35.6247 18.278C35.9788 18.0963 36.2403 17.8464 36.4093 17.5284C36.5824 17.2103 36.6689 16.845 36.6689 16.4323C36.6689 16.0196 36.5824 15.6561 36.4093 15.3419C36.2403 15.0276 35.9768 14.7834 35.6186 14.6093C35.2645 14.4313 34.8078 14.3423 34.2485 14.3423H32.1963V22.0157C32.1963 23.2291 31.1938 24.2128 29.957 24.2128Z" fill="#181818"/>
<path d="M39.7307 24.2128V17.5682C39.7307 16.4202 40.6792 15.4895 41.8493 15.4895V16.9434H41.9459C42.1149 16.4399 42.4046 16.0518 42.815 15.7792C43.2295 15.5028 43.7023 15.3646 44.2334 15.3646C44.3542 15.3646 44.489 15.3703 44.6378 15.3816C44.7907 15.3892 44.9175 15.4025 45.0181 15.4214V17.3126C44.9256 17.2823 44.7787 17.2558 44.5775 17.2331C44.3803 17.2066 44.1892 17.1933 44.0041 17.1933C43.6057 17.1933 43.2476 17.2747 42.9297 17.4375C42.6158 17.5965 42.3684 17.818 42.1873 18.102C42.0062 18.3859 41.9157 18.7134 41.9157 19.0845V22.069C41.9157 23.253 40.9374 24.2128 39.7307 24.2128Z" fill="#181818"/>
<path d="M50.1923 24.3832C49.2628 24.3832 48.46 24.2015 47.784 23.838C47.112 23.4707 46.595 22.952 46.2328 22.2819C45.8707 21.608 45.6896 20.8148 45.6896 19.9023C45.6896 19.005 45.8707 18.2175 46.2328 17.5397C46.599 16.8582 47.11 16.3282 47.7659 15.9496C48.4218 15.5672 49.1924 15.376 50.0776 15.376C50.649 15.376 51.1882 15.463 51.6952 15.6372C52.2063 15.8076 52.657 16.0726 53.0473 16.4323C53.4416 16.792 53.7514 17.2501 53.9768 17.8067C54.2021 18.3594 54.3148 19.0182 54.3148 19.783V20.4134H46.7157V19.0277H52.2204C52.2163 18.6339 52.1258 18.2837 51.9487 17.977C51.7717 17.6666 51.5242 17.4224 51.2063 17.2444C50.8925 17.0665 50.5263 16.9775 50.1078 16.9775C49.6612 16.9775 49.2688 17.0797 48.9308 17.2842C48.5928 17.4848 48.3293 17.7499 48.1401 18.0793C47.955 18.4049 47.8605 18.7627 47.8565 19.1526V20.3623C47.8565 20.8697 47.955 21.3051 48.1522 21.6685C48.3494 22.0282 48.625 22.3046 48.9791 22.4977C49.3332 22.687 49.7477 22.7817 50.2225 22.7817C50.5404 22.7817 50.8281 22.74 51.0856 22.6567C51.3432 22.5696 51.5665 22.4428 51.7556 22.2762C52.0934 21.9786 52.4983 21.6904 52.9497 21.7382L53.0028 21.7438C53.6486 21.8121 54.0931 22.4462 53.701 22.9544C53.6351 23.0398 53.5641 23.1223 53.4879 23.2019C53.1298 23.5768 52.671 23.8683 52.1117 24.0765C51.5524 24.281 50.9126 24.3832 50.1923 24.3832Z" fill="#181818"/>
<path d="M59.6037 24.3662C58.8754 24.3662 58.2235 24.1901 57.6481 23.838C57.0727 23.4859 56.618 22.9748 56.284 22.3046C55.95 21.6345 55.783 20.8204 55.783 19.8625C55.783 18.8933 55.952 18.0755 56.29 17.4091C56.6321 16.739 57.0928 16.2335 57.6722 15.8928C58.2517 15.5482 58.8975 15.376 59.6097 15.376C60.153 15.376 60.5996 15.463 60.9497 15.6372C61.2998 15.8076 61.5774 16.0139 61.7826 16.2562C61.9879 16.4948 62.1468 16.72 62.2595 16.9321H62.35V14.7315C62.35 13.5442 63.331 12.5818 64.541 12.5818V22.1045C64.541 23.2689 63.579 24.2128 62.3923 24.2128V22.8385H62.2595C62.1468 23.0505 61.9838 23.2758 61.7706 23.5143C61.5573 23.749 61.2756 23.9497 60.9255 24.1163C60.5755 24.2829 60.1348 24.3662 59.6037 24.3662ZM60.2133 22.6794C60.6761 22.6794 61.0704 22.5621 61.3963 22.3273C61.7223 22.0888 61.9697 21.7575 62.1388 21.3335C62.3078 20.9094 62.3923 20.4153 62.3923 19.8512C62.3923 19.287 62.3078 18.7967 62.1388 18.3803C61.9738 17.9638 61.7283 17.6401 61.4024 17.4091C61.0805 17.1782 60.6841 17.0627 60.2133 17.0627C59.7264 17.0627 59.32 17.1819 58.9941 17.4205C58.6681 17.659 58.4227 17.9884 58.2577 18.4087C58.0927 18.8289 58.0102 19.3098 58.0102 19.8512C58.0102 20.3964 58.0927 20.8829 58.2577 21.3107C58.4267 21.7348 58.6742 22.0699 59.0001 22.316C59.3301 22.5583 59.7345 22.6794 60.2133 22.6794Z" fill="#181818"/>
<path d="M66.8693 24.2128V17.6333C66.8693 16.4494 67.8476 15.4895 69.0543 15.4895V22.069C69.0543 23.253 68.0761 24.2128 66.8693 24.2128ZM67.9679 14.2515C67.6218 14.2515 67.324 14.1436 67.0746 13.9278C66.8251 13.7082 66.7003 13.445 66.7003 13.1383C66.7003 12.8279 66.8251 12.5647 67.0746 12.3489C67.324 12.1293 67.6218 12.0195 67.9679 12.0195C68.3179 12.0195 68.6157 12.1293 68.8612 12.3489C69.1106 12.5647 69.2354 12.8279 69.2354 13.1383C69.2354 13.445 69.1106 13.7082 68.8612 13.9278C68.6157 14.1436 68.3179 14.2515 67.9679 14.2515Z" fill="#181818"/>
<path d="M75.3331 27.6658C74.5484 27.6658 73.8744 27.5655 73.3111 27.3648C72.7477 27.1679 72.295 26.9029 71.953 26.5697C71.9116 26.5293 71.8716 26.4884 71.8333 26.447C71.408 25.9878 71.7689 25.3418 72.3848 25.2014L72.5788 25.1572C72.9487 25.0728 73.3268 25.2549 73.5948 25.519C73.7638 25.6894 73.9911 25.8295 74.2768 25.9393C74.5665 26.0529 74.9307 26.1097 75.3693 26.1097C75.989 26.1097 76.502 25.9677 76.9084 25.6837C77.3149 25.4036 77.5181 24.9417 77.5181 24.298V22.6454H77.4094C77.2967 22.8574 77.1318 23.0751 76.9145 23.2985C76.7012 23.5219 76.4175 23.7093 76.0634 23.8607C75.7133 24.0122 75.2727 24.0879 74.7416 24.0879C74.0293 24.0879 73.3835 23.9308 72.8041 23.6165C72.2287 23.2985 71.7699 22.8252 71.4279 22.1967C71.0899 21.5644 70.9209 20.7731 70.9209 19.8228C70.9209 18.8649 71.0899 18.0565 71.4279 17.3978C71.7699 16.7352 72.2307 16.2335 72.8101 15.8928C73.3895 15.5482 74.0354 15.376 74.7476 15.376C75.2908 15.376 75.7375 15.463 76.0876 15.6372C76.4417 15.8076 76.7233 16.0139 76.9326 16.2562C77.1418 16.4948 77.3008 16.72 77.4094 16.9321H77.5301C77.5301 16.1354 78.1884 15.4895 79.0003 15.4895H79.6849V24.3548C79.6849 25.1007 79.4958 25.7178 79.1176 26.2062C78.7393 26.6946 78.2222 27.06 77.5663 27.3023C76.9105 27.5446 76.166 27.6658 75.3331 27.6658ZM75.3512 22.475C75.8139 22.475 76.2083 22.369 76.5342 22.1569C76.8602 21.9449 77.1076 21.6401 77.2766 21.2426C77.4456 20.845 77.5301 20.368 77.5301 19.8114C77.5301 19.2624 77.4456 18.7816 77.2766 18.3689C77.1116 17.9562 76.8662 17.6363 76.5402 17.4091C76.2183 17.1782 75.822 17.0627 75.3512 17.0627C74.8643 17.0627 74.4579 17.1819 74.132 17.4205C73.806 17.659 73.5606 17.9865 73.3956 18.403C73.2306 18.8157 73.1481 19.2852 73.1481 19.8114C73.1481 20.3453 73.2306 20.8129 73.3956 21.2142C73.5646 21.6117 73.8121 21.9222 74.138 22.1456C74.4679 22.3652 74.8723 22.475 75.3512 22.475Z" fill="#181818"/>
<path d="M84.1092 12.5818V22.069C84.1092 23.253 83.1309 24.2128 81.9242 24.2128V14.7256C81.9242 13.5416 82.9025 12.5818 84.1092 12.5818Z" fill="#181818"/>
<path d="M90.4604 24.3832C89.5309 24.3832 88.7281 24.2015 88.0521 23.838C87.3801 23.4707 86.863 22.952 86.5009 22.2819C86.1387 21.608 85.9577 20.8148 85.9577 19.9023C85.9577 19.005 86.1387 18.2175 86.5009 17.5397C86.8671 16.8582 87.3781 16.3282 88.034 15.9496C88.6899 15.5672 89.4605 15.376 90.3457 15.376C90.9171 15.376 91.4563 15.463 91.9633 15.6372C92.4744 15.8076 92.925 16.0726 93.3154 16.4323C93.7097 16.792 94.0195 17.2501 94.2449 17.8067C94.4702 18.3594 94.5829 19.0182 94.5829 19.783V20.4134H86.9838V19.0277H92.4884C92.4844 18.6339 92.3939 18.2837 92.2168 17.977C92.0398 17.6666 91.7923 17.4224 91.4744 17.2444C91.1606 17.0665 90.7944 16.9775 90.3759 16.9775C89.9292 16.9775 89.5369 17.0797 89.1989 17.2842C88.8609 17.4848 88.5973 17.7499 88.4082 18.0793C88.2231 18.4049 88.1286 18.7627 88.1245 19.1526V20.3623C88.1245 20.8697 88.2231 21.3051 88.4203 21.6685C88.6175 22.0282 88.8931 22.3046 89.2472 22.4977C89.6013 22.687 90.0158 22.7817 90.4906 22.7817C90.8085 22.7817 91.0962 22.74 91.3537 22.6567C91.6112 22.5696 91.8346 22.4428 92.0237 22.2762C92.3615 21.9786 92.7664 21.6904 93.2178 21.7382L93.2708 21.7438C93.9167 21.8121 94.3612 22.4462 93.969 22.9544C93.9032 23.0398 93.8322 23.1223 93.756 23.2019C93.3978 23.5768 92.9391 23.8683 92.3798 24.0765C91.8205 24.281 91.1807 24.3832 90.4604 24.3832Z" fill="#181818"/>
</g>
<defs>
<clipPath id="clip0_169_2576">
<rect width="19.3623" height="30.3516" fill="white" transform="translate(5.15234 4.82422)"/>
</clipPath>
<clipPath id="clip1_169_2576">
<rect width="91.1562" height="30.3854" fill="white" transform="translate(5.15234 4.82422)"/>
</clipPath>
<clipPath id="clip2_169_2576">
<rect width="64.8897" height="15.9608" fill="white" transform="translate(29.957 12.0195)"/>
</clipPath>
</defs>
</svg>
