<svg width="100" height="40" viewBox="0 0 100 40" fill="none" xmlns="http://www.w3.org/2000/svg">
<mask id="mask0_266_121" style="mask-type:luminance" maskUnits="userSpaceOnUse" x="5" y="4" width="20" height="32">
<path d="M24.5146 4.82422H5.15234V35.1758H24.5146V4.82422Z" fill="white"/>
</mask>
<g mask="url(#mask0_266_121)">
<mask id="mask1_266_121" style="mask-type:luminance" maskUnits="userSpaceOnUse" x="5" y="4" width="92" height="32">
<path d="M96.3085 4.82422H5.15234V35.2096H96.3085V4.82422Z" fill="white"/>
</mask>
<g mask="url(#mask1_266_121)">
<path d="M7.4833 12.8972C5.28495 11.7642 4.49469 9.08998 5.7374 6.98908C6.93351 4.96695 9.5715 4.23306 11.6807 5.33565L24.5107 12.2942L24.4937 22.3539L7.4833 12.8972Z" fill="#2B50E6"/>
<path d="M8.77455 26.4292C6.9899 25.1651 7.10553 22.5174 8.99326 21.4213L24.5113 12.2939V22.4579L12.6241 29.1561L8.77455 26.4292Z" fill="#8C1ECB"/>
<path d="M5.14844 25.8203C5.14844 25.496 5.14844 25.3338 5.16223 25.1826C5.24195 24.3086 5.66202 23.5136 6.31608 22.999C6.42921 22.91 6.558 22.8284 6.81557 22.6653L12.7363 19.2139L12.7448 30.8133C12.7448 33.0961 11.0443 34.9466 8.94661 34.9466C6.84894 34.9466 5.14844 33.0961 5.14844 30.8133V25.8203Z" fill="#2B50E6"/>
</g>
</g>
<mask id="mask2_266_121" style="mask-type:luminance" maskUnits="userSpaceOnUse" x="29" y="12" width="66" height="16">
<path d="M94.8467 12.0195H29.957V27.9803H94.8467V12.0195Z" fill="white"/>
</mask>
<g mask="url(#mask2_266_121)">
<path d="M29.957 24.213V13.1966C29.957 12.8572 30.2375 12.582 30.5835 12.582H34.5926C35.5422 12.582 36.3389 12.7486 36.9827 13.0817C37.6306 13.4149 38.1195 13.8731 38.4495 14.4561C38.7834 15.0354 38.9504 15.6942 38.9504 16.4325C38.9504 17.1784 38.7834 17.8409 38.4495 18.4202C38.1155 18.9995 37.6225 19.4557 36.9707 19.7889C36.3188 20.1183 35.516 20.283 34.5624 20.283H31.4901V18.5508H34.2606C34.8159 18.5508 35.2706 18.46 35.6247 18.2782C35.9788 18.0965 36.2403 17.8466 36.4093 17.5286C36.5824 17.2105 36.6689 16.8452 36.6689 16.4325C36.6689 16.0198 36.5824 15.6563 36.4093 15.3421C36.2403 15.0278 35.9768 14.7836 35.6186 14.6095C35.2645 14.4315 34.8078 14.3425 34.2485 14.3425H32.1963V22.0159C32.1963 23.2293 31.1938 24.213 29.957 24.213Z" fill="white"/>
<path d="M39.731 24.2125V17.5679C39.731 16.4199 40.6795 15.4892 41.8496 15.4892V16.9431H41.9462C42.1152 16.4396 42.4049 16.0515 42.8153 15.7789C43.2298 15.5025 43.7026 15.3643 44.2337 15.3643C44.3545 15.3643 44.4893 15.37 44.6381 15.3813C44.791 15.3889 44.9178 15.4022 45.0184 15.4211V17.3123C44.9259 17.282 44.779 17.2555 44.5778 17.2328C44.3806 17.2063 44.1895 17.193 44.0044 17.193C43.606 17.193 43.2479 17.2744 42.93 17.4372C42.6161 17.5962 42.3687 17.8177 42.1876 18.1017C42.0065 18.3856 41.916 18.7131 41.916 19.0842V22.0687C41.916 23.2527 40.9377 24.2125 39.731 24.2125Z" fill="white"/>
<path d="M50.1922 24.3832C49.2627 24.3832 48.4599 24.2015 47.7839 23.838C47.1119 23.4707 46.5949 22.952 46.2327 22.2819C45.8706 21.608 45.6895 20.8148 45.6895 19.9023C45.6895 19.005 45.8706 18.2175 46.2327 17.5397C46.5989 16.8582 47.1099 16.3282 47.7658 15.9496C48.4217 15.5672 49.1922 15.376 50.0774 15.376C50.6488 15.376 51.1881 15.463 51.6951 15.6372C52.2062 15.8076 52.6568 16.0726 53.0471 16.4323C53.4414 16.792 53.7513 17.2501 53.9767 17.8067C54.202 18.3594 54.3147 19.0182 54.3147 19.783V20.4134H46.7155V19.0277H52.2203C52.2162 18.6339 52.1257 18.2837 51.9486 17.977C51.7716 17.6666 51.5241 17.4224 51.2062 17.2444C50.8924 17.0665 50.5262 16.9775 50.1077 16.9775C49.6611 16.9775 49.2687 17.0797 48.9307 17.2842C48.5927 17.4848 48.3291 17.7499 48.1399 18.0793C47.9548 18.4049 47.8603 18.7627 47.8563 19.1526V20.3623C47.8563 20.8697 47.9549 21.3051 48.1521 21.6685C48.3493 22.0282 48.6249 22.3046 48.979 22.4977C49.3331 22.687 49.7476 22.7817 50.2224 22.7817C50.5403 22.7817 50.828 22.74 51.0855 22.6567C51.3431 22.5696 51.5664 22.4428 51.7555 22.2762C52.0933 21.9786 52.4982 21.6904 52.9496 21.7382L53.0027 21.7438C53.6485 21.8121 54.093 22.4462 53.7009 22.9544C53.635 23.0398 53.564 23.1223 53.4878 23.2019C53.1297 23.5768 52.6708 23.8683 52.1115 24.0765C51.5522 24.281 50.9125 24.3832 50.1922 24.3832Z" fill="white"/>
<path d="M59.6039 24.3664C58.8756 24.3664 58.2237 24.1903 57.6483 23.8382C57.0729 23.4861 56.6182 22.975 56.2842 22.3048C55.9502 21.6347 55.7832 20.8206 55.7832 19.8627C55.7832 18.8935 55.9522 18.0757 56.2902 17.4093C56.6323 16.7392 57.093 16.2337 57.6724 15.893C58.2519 15.5484 58.8977 15.3762 59.6099 15.3762C60.1532 15.3762 60.5998 15.4632 60.9499 15.6374C61.3 15.8078 61.5776 16.0141 61.7828 16.2564C61.9881 16.495 62.147 16.7202 62.2597 16.9323H62.3502V14.7317C62.3502 13.5444 63.3312 12.582 64.5412 12.582V22.1047C64.5412 23.2691 63.5792 24.213 62.3925 24.213V22.8387H62.2597C62.147 23.0507 61.984 23.276 61.7708 23.5145C61.5575 23.7492 61.2758 23.9499 60.9257 24.1165C60.5757 24.2831 60.135 24.3664 59.6039 24.3664ZM60.2135 22.6796C60.6763 22.6796 61.0706 22.5623 61.3965 22.3275C61.7225 22.089 61.9699 21.7577 62.139 21.3337C62.308 20.9096 62.3925 20.4155 62.3925 19.8514C62.3925 19.2872 62.308 18.7969 62.139 18.3805C61.974 17.964 61.7285 17.6403 61.4026 17.4093C61.0807 17.1784 60.6843 17.0629 60.2135 17.0629C59.7266 17.0629 59.3202 17.1821 58.9943 17.4207C58.6683 17.6592 58.4229 17.9886 58.2579 18.4089C58.0929 18.8291 58.0104 19.31 58.0104 19.8514C58.0104 20.3966 58.0929 20.8831 58.2579 21.3109C58.4269 21.735 58.6744 22.0701 59.0003 22.3162C59.3303 22.5585 59.7347 22.6796 60.2135 22.6796Z" fill="white"/>
<path d="M66.8692 24.2128V17.6333C66.8692 16.4494 67.8475 15.4895 69.0542 15.4895V22.069C69.0542 23.253 68.076 24.2128 66.8692 24.2128ZM67.9678 14.2515C67.6217 14.2515 67.3239 14.1436 67.0745 13.9278C66.825 13.7082 66.7002 13.445 66.7002 13.1383C66.7002 12.8279 66.825 12.5647 67.0745 12.3489C67.3239 12.1293 67.6217 12.0195 67.9678 12.0195C68.3178 12.0195 68.6156 12.1293 68.8611 12.3489C69.1105 12.5647 69.2353 12.8279 69.2353 13.1383C69.2353 13.445 69.1105 13.7082 68.8611 13.9278C68.6156 14.1436 68.3178 14.2515 67.9678 14.2515Z" fill="white"/>
<path d="M75.3331 28.6658C74.5484 28.6658 73.8744 28.5573 73.3111 28.3403C72.7477 28.1274 72.295 27.8408 71.953 27.4805C71.9116 27.4368 71.8716 27.3926 71.8333 27.3478C71.408 26.8512 71.7689 26.1527 72.3848 26.0009L72.5788 25.9531C72.9487 25.8618 73.3268 26.0587 73.5948 26.3443C73.7638 26.5286 73.9911 26.6801 74.2768 26.7988C74.5665 26.9216 74.9307 26.9831 75.3693 26.9831C75.989 26.9831 76.502 26.8295 76.9084 26.5224C77.3149 26.2195 77.5181 25.72 77.5181 25.0239V23.2369H77.4094C77.2967 23.4661 77.1318 23.7015 76.9145 23.9431C76.7012 24.1847 76.4175 24.3873 76.0634 24.5511C75.7133 24.7149 75.2727 24.7967 74.7416 24.7967C74.0293 24.7967 73.3835 24.6269 72.8041 24.287C72.2287 23.9431 71.7699 23.4313 71.4279 22.7517C71.0899 22.0679 70.9209 21.2122 70.9209 20.1846C70.9209 19.1488 71.0899 18.2746 71.4279 17.5623C71.7699 16.8458 72.2307 16.3032 72.8101 15.9348C73.3895 15.5622 74.0354 15.376 74.7476 15.376C75.2908 15.376 75.7375 15.4701 76.0876 15.6584C76.4417 15.8427 76.7233 16.0658 76.9326 16.3278C77.1418 16.5858 77.3008 16.8293 77.4094 17.0587H77.5301C77.5301 16.1972 78.1884 15.4987 79.0003 15.4987H79.6849V25.0854C79.6849 25.892 79.4958 26.5593 79.1176 27.0874C78.7393 27.6156 78.2222 28.0107 77.5663 28.2727C76.9105 28.5347 76.166 28.6658 75.3331 28.6658ZM75.3512 23.0526C75.8139 23.0526 76.2083 22.938 76.5342 22.7086C76.8602 22.4794 77.1076 22.1498 77.2766 21.7199C77.4456 21.29 77.5301 20.7742 77.5301 20.1723C77.5301 19.5786 77.4456 19.0587 77.2766 18.6124C77.1116 18.1661 76.8662 17.8202 76.5402 17.5745C76.2183 17.3248 75.822 17.1999 75.3512 17.1999C74.8643 17.1999 74.4579 17.3288 74.132 17.5868C73.806 17.8447 73.5606 18.1989 73.3956 18.6493C73.2306 19.0956 73.1481 19.6033 73.1481 20.1723C73.1481 20.7496 73.2306 21.2553 73.3956 21.6892C73.5646 22.1191 73.8121 22.4548 74.138 22.6964C74.4679 22.9339 74.8723 23.0526 75.3512 23.0526Z" fill="white"/>
<path d="M84.1093 12.582V22.8849C84.1093 24.1707 83.131 25.213 81.9243 25.213V14.9101C81.9243 13.6244 82.9026 12.582 84.1093 12.582Z" fill="white"/>
<path d="M90.4602 25.3832C89.5307 25.3832 88.7279 25.1813 88.0519 24.7774C87.3799 24.3694 86.8628 23.7931 86.5007 23.0486C86.1385 22.2999 85.9575 21.4186 85.9575 20.4048C85.9575 19.4079 86.1385 18.5329 86.5007 17.7799C86.8669 17.0227 87.3779 16.4339 88.0338 16.0133C88.6897 15.5884 89.4603 15.376 90.3455 15.376C90.9169 15.376 91.4561 15.4726 91.9631 15.6662C92.4742 15.8555 92.9248 16.1499 93.3152 16.5495C93.7095 16.9492 94.0193 17.4581 94.2447 18.0765C94.47 18.6906 94.5827 19.4225 94.5827 20.2723V20.9726H86.9836V19.4331H92.4882C92.4842 18.9956 92.3937 18.6065 92.2166 18.2657C92.0396 17.9209 91.7921 17.6496 91.4742 17.4518C91.1604 17.2542 90.7942 17.1553 90.3757 17.1553C89.929 17.1553 89.5367 17.2688 89.1987 17.496C88.8607 17.7189 88.5971 18.0134 88.408 18.3794C88.2229 18.7412 88.1284 19.1387 88.1243 19.5719V20.9159C88.1243 21.4796 88.2229 21.9633 88.4201 22.3671C88.6173 22.7667 88.8929 23.0738 89.247 23.2883C89.6011 23.4987 90.0156 23.6039 90.4904 23.6039C90.8083 23.6039 91.096 23.5575 91.3535 23.465C91.611 23.3682 91.8344 23.2273 92.0235 23.0423C92.3613 22.7116 92.7662 22.3914 93.2176 22.4445L93.2706 22.4507C93.9165 22.5266 94.361 23.2311 93.9688 23.7957C93.903 23.8906 93.832 23.9823 93.7558 24.0707C93.3976 24.4872 92.9389 24.8111 92.3796 25.0424C91.8203 25.2696 91.1805 25.3832 90.4602 25.3832Z" fill="white"/>
</g>
</svg>
